<svg xmlns="http://www.w3.org/2000/svg" viewBox="0 0 400 200">
  <defs>
    <linearGradient id="blue-skin" x1="100%" y1="0%" x2="0%" y2="0%"><stop offset="0%" stop-color="#466f9d" /><stop offset="60%" stop-color="#5c8bc2" /><stop offset="100%" stop-color="#729ed5" /></linearGradient>
    <linearGradient id="blue-belly" x1="100%" y1="0%" x2="0%" y2="100%"><stop offset="0%" stop-color="#cbd5e1" /><stop offset="100%" stop-color="#f8fafc" /></linearGradient>
  </defs>
  <g class="whale-container">
    <g class="flipper-back"><path d="M 180,112 C 172,129 178,144 186,150 C 189,150 188,142 182,126 Z" fill="#36577a" opacity="0.7" /></g>
    <g class="tail-fin" style="transform-origin: 290px 100px; transform-box: view-box;"><path d="M 290,100 C 304,95 320,83 336,76 C 328,92 318,99 306,101 C 318,103 328,110 336,126 C 320,119 304,107 290,100 Z" fill="url(#blue-skin)" /></g>
    <g class="body">
      <path d="M 290,100 C 255,112 200,126 140,126 C 95,126 68,114 50,98 C 45,95 47,92 56,92 C 105,92 205,98 290,100 Z" fill="url(#blue-belly)" />
      <path d="M 290,100 C 255,88 200,74 140,74 C 85,74 58,86 47,94 C 47,94 48,98 52,98 C 105,108 205,104 290,100 Z" fill="url(#blue-skin)" />
      <path d="M 130,74 C 170,70 215,74 255,80 C 240,84 170,80 130,74 Z" fill="#b9d6f2" opacity="0.85" />
      <path d="M 62,97 Q 105,114 150,107" stroke="#94a3b8" stroke-width="0.8" fill="none" opacity="0.6" /><path d="M 66,100 Q 105,118 155,111" stroke="#94a3b8" stroke-width="0.8" fill="none" opacity="0.6" /><path d="M 70,103 Q 105,122 150,115" stroke="#94a3b8" stroke-width="0.8" fill="none" opacity="0.6" /><path d="M 74,106 Q 105,125 140,118" stroke="#94a3b8" stroke-width="0.8" fill="none" opacity="0.6" /><path d="M 78,109 Q 105,127 130,120" stroke="#94a3b8" stroke-width="0.8" fill="none" opacity="0.6" />
      <ellipse cx="250" cy="103" rx="4" ry="1.5" fill="#cbd5e1" opacity="0.6" /><ellipse cx="262" cy="103" rx="6" ry="2" fill="#cbd5e1" opacity="0.8" /><ellipse cx="272" cy="102" rx="5" ry="1.5" fill="#cbd5e1" opacity="0.7" /><circle cx="256" cy="104" r="1" fill="#f1f5f9" opacity="0.8" /><circle cx="266" cy="102" r="1.2" fill="#f1f5f9" opacity="0.9" /><circle cx="278" cy="101" r="1" fill="#f1f5f9" opacity="0.7" />
      <circle cx="82" cy="94" r="1.6" fill="#ffffff" /><circle cx="82" cy="94" r="0.7" fill="#000000" />
      <path d="M 102,102 Q 72,103 54,97" stroke="#334155" stroke-width="1.3" fill="none" stroke-linecap="round" />
    </g>
    <g class="flipper-front" style="transform-origin: 170px 115px; transform-box: view-box;"><path d="M 170,115 C 162,140 174,165 187,175 C 192,175 190,160 180,140 Z" fill="url(#blue-skin)" stroke="#2563eb" stroke-width="0.5" /></g>
  </g>
</svg>
