<svg xmlns="http://www.w3.org/2000/svg" viewBox="0 0 400 200">
  <defs>
    <linearGradient id="gray-skin" x1="0%" y1="0%" x2="0%" y2="100%">
      <stop offset="0%" stop-color="#3b3f43" />
      <stop offset="30%" stop-color="#2c3035" />
      <stop offset="80%" stop-color="#1f2226" />
      <stop offset="100%" stop-color="#111215" />
    </linearGradient>
  </defs>
  <g class="whale-container">
    <g class="tail-fin" style="transform-origin: 65px 100px; transform-box: view-box;">
      <path d="M 10,149.5 L 9,149.5 L 8,149.5 L 7,149.5 L 6.5,149 L 6,148.5 L 5,148.5 L 4.5,148 L 4.5,147 L 4.5,146 L 5,145.5 L 6,145.5 L 6.5,145 L 7,144.5 L 7.5,144 L 8,143.5 L 8.5,143 L 9,142.5 L 9.5,142 L 10,141.5 L 10.5,141 L 10.5,140 L 11,139.5 L 11.5,139 L 11.5,138 L 11.5,137 L 12,136.5 L 12.5,136 L 12.5,135 L 12.5,134 L 12.5,133 L 12.5,132 L 12.5,131 L 13,130.5 L 13.5,130 L 13.5,129 L 13.5,128 L 13.5,127 L 14,126.5 L 14.5,126 L 14.5,125 L 14.5,124 L 15,123.5 L 15.5,123 L 15.5,122 L 16,121.5 L 16.5,121 L 17,120.5 L 17.5,120 L 17.5,119 L 18,118.5 L 18.5,118 L 19,117.5 L 19.5,117 L 20,116.5 L 20.5,116 L 21,115.5 L 21.5,115 L 22,114.5 L 23,114.5 L 23.5,114 L 24,113.5 L 25,113.5 L 25.5,113 L 25,112.5 L 24.5,112 L 24.5,111 L 24.5,110 L 24.5,109 L 25,108.5 L 25.5,108 L 26,107.5 L 26.5,107 L 27,106.5 L 27.5,106 L 27.5,105 L 27.5,104 L 28,103.5 L 29,103.5 L 30,103.5 L 31,103.5 L 32,103.5 L 33,103.5 L 34,103.5 L 35,103.5 L 36,103.5 L 36.5,104 L 37,104.5 L 38,104.5 L 39,104.5 L 40,104.5 L 41,104.5 L 41.5,105 L 42,105.5 L 43,105.5 L 43.5,105 L 44,104.5 L 44.5,104 L 45,103.5 L 46,103.5 L 46.5,103 L 47,102.5 L 47.5,102 L 48,101.5 L 48.5,101 L 49,100.5 L 49.5,100 L 50,99.5 L 50.5,99 L 50.5,98 L 51,97.5 L 51.5,97 L 52,96.5 L 53,96.5 L 53.5,96 L 53.5,95 L 54,94.5 L 54.5,94 L 55,93.5 L 55.5,93 L 56,92.5 L 56.5,92 L 57,91.5 L 57.5,91 L 58,90.5 L 58.5,90 L 59,89.5 L 59.5,89 L 59.5,88 L 60,87.5 L 61,87.5 L 61.5,87 L 62,86.5 L 62.5,86 L 63,85.5 L 63.5,85 L 64,84.5 L 64.5,84 L 64,115.5 L 63,115.5 L 62,115.5 L 61.5,116 L 61,116.5 L 60,116.5 L 59,116.5 L 58,116.5 L 57,116.5 L 56,116.5 L 55,116.5 L 54,116.5 L 53,116.5 L 52,116.5 L 51.5,117 L 51,117.5 L 50.5,118 L 50,118.5 L 49.5,119 L 49,119.5 L 48.5,120 L 48.5,121 L 48,121.5 L 47.5,122 L 47.5,123 L 47,123.5 L 46.5,124 L 46,124.5 L 45.5,125 L 45,125.5 L 44.5,126 L 44.5,127 L 44,127.5 L 43.5,128 L 43,128.5 L 42.5,129 L 42,129.5 L 41.5,130 L 41,130.5 L 40.5,131 L 40.5,132 L 40,132.5 L 39.5,133 L 39,133.5 L 38.5,134 L 38,134.5 L 37.5,135 L 37,135.5 L 36.5,136 L 36,136.5 L 35,136.5 L 34.5,137 L 34,137.5 L 33.5,138 L 33,138.5 L 32.5,139 L 32,139.5 L 31.5,140 L 31,140.5 L 30.5,141 L 30,141.5 L 29,141.5 L 28.5,142 L 28,142.5 L 27,142.5 L 26.5,143 L 26,143.5 L 25.5,144 L 25,144.5 L 24,144.5 L 23.5,145 L 23,145.5 L 22,145.5 L 21.5,146 L 21,146.5 L 20,146.5 L 19.5,147 L 19,147.5 L 18,147.5 L 17,147.5 L 16,147.5 L 15.5,148 L 15,148.5 L 14,148.5 L 13,148.5 L 12,148.5 L 11,148.5 L 10.5,149 L 10,149.5 Z" fill="url(#gray-skin)" />
    </g>
    <g class="body">
      <path d="M 65,83.5 L 66,83.5 L 66.5,83 L 67,82.5 L 67.5,82 L 68,81.5 L 68.5,81 L 69,80.5 L 69.5,80 L 70,79.5 L 71,79.5 L 72,79.5 L 72.5,79 L 73,78.5 L 74,78.5 L 74.5,78 L 75,77.5 L 75.5,77 L 76,76.5 L 76.5,76 L 77,75.5 L 77.5,75 L 78,74.5 L 79,74.5 L 79.5,74 L 80,73.5 L 81,73.5 L 81.5,73 L 82,72.5 L 82.5,72 L 83,71.5 L 83.5,71 L 84,70.5 L 84.5,70 L 85,69.5 L 86,69.5 L 87,69.5 L 87.5,69 L 88,68.5 L 89,68.5 L 89.5,68 L 90,67.5 L 91,67.5 L 91.5,67 L 92,66.5 L 92.5,66 L 93,65.5 L 93.5,65 L 94,64.5 L 95,64.5 L 95.5,64 L 96,63.5 L 96.5,63 L 97,62.5 L 98,62.5 L 98.5,62 L 99,61.5 L 100,61.5 L 100.5,61 L 101,60.5 L 102,60.5 L 102.5,60 L 103,59.5 L 103.5,59 L 104,58.5 L 104.5,58 L 105,57.5 L 106,57.5 L 106.5,57 L 107,56.5 L 108,56.5 L 109,56.5 L 109.5,56 L 110,55.5 L 111,55.5 L 111.5,55 L 112,54.5 L 112.5,54 L 113,53.5 L 114,53.5 L 114.5,53 L 115,52.5 L 115.5,52 L 116,51.5 L 117,51.5 L 118,51.5 L 119,51.5 L 119.5,51 L 120,50.5 L 121,50.5 L 121.5,50 L 122,49.5 L 122.5,49 L 123,48.5 L 124,48.5 L 124.5,48 L 125,47.5 L 126,47.5 L 127,47.5 L 128,47.5 L 128.5,47 L 129,46.5 L 130,46.5 L 130.5,46 L 131,45.5 L 131.5,45 L 132,44.5 L 133,44.5 L 133.5,44 L 134,43.5 L 135,43.5 L 135.5,43 L 136,42.5 L 137,42.5 L 137.5,42 L 138,41.5 L 138.5,41 L 139,40.5 L 139.5,40 L 140,39.5 L 141,39.5 L 141.5,39 L 142,38.5 L 143,38.5 L 144,38.5 L 145,38.5 L 146,38.5 L 147,38.5 L 147.5,39 L 148,39.5 L 149,39.5 L 150,39.5 L 151,39.5 L 152,39.5 L 153,39.5 L 154,39.5 L 155,39.5 L 156,39.5 L 157,39.5 L 158,39.5 L 159,39.5 L 160,39.5 L 161,39.5 L 162,39.5 L 163,39.5 L 164,39.5 L 165,39.5 L 166,39.5 L 166.5,39 L 167,38.5 L 168,38.5 L 169,38.5 L 170,38.5 L 171,38.5 L 172,38.5 L 173,38.5 L 174,38.5 L 174.5,38 L 175,37.5 L 176,37.5 L 177,37.5 L 178,37.5 L 179,37.5 L 180,37.5 L 181,37.5 L 182,37.5 L 182.5,37 L 183,36.5 L 183.5,37 L 184,37.5 L 185,37.5 L 186,37.5 L 187,37.5 L 188,37.5 L 189,37.5 L 189.5,37 L 190,36.5 L 190.5,37 L 191,37.5 L 191.5,37 L 192,36.5 L 193,36.5 L 194,36.5 L 195,36.5 L 196,36.5 L 197,36.5 L 198,36.5 L 199,36.5 L 200,36.5 L 201,36.5 L 202,36.5 L 203,36.5 L 204,36.5 L 205,36.5 L 206,36.5 L 207,36.5 L 208,36.5 L 209,36.5 L 210,36.5 L 211,36.5 L 211.5,36 L 212,35.5 L 213,35.5 L 214,35.5 L 215,35.5 L 216,35.5 L 217,35.5 L 218,35.5 L 219,35.5 L 220,35.5 L 221,35.5 L 222,35.5 L 223,35.5 L 224,35.5 L 225,35.5 L 226,35.5 L 227,35.5 L 228,35.5 L 229,35.5 L 230,35.5 L 231,35.5 L 232,35.5 L 233,35.5 L 233.5,36 L 234,36.5 L 235,36.5 L 236,36.5 L 237,36.5 L 238,36.5 L 239,36.5 L 240,36.5 L 241,36.5 L 242,36.5 L 243,36.5 L 244,36.5 L 245,36.5 L 246,36.5 L 247,36.5 L 248,36.5 L 249,36.5 L 250,36.5 L 250.5,37 L 251,37.5 L 252,37.5 L 253,37.5 L 254,37.5 L 255,37.5 L 256,37.5 L 257,37.5 L 258,37.5 L 259,37.5 L 259.5,38 L 260,38.5 L 261,38.5 L 262,38.5 L 263,38.5 L 264,38.5 L 265,38.5 L 266,38.5 L 267,38.5 L 267.5,39 L 268,39.5 L 269,39.5 L 270,39.5 L 271,39.5 L 272,39.5 L 273,39.5 L 273.5,40 L 274,40.5 L 275,40.5 L 276,40.5 L 277,40.5 L 278,40.5 L 279,40.5 L 280,40.5 L 281,40.5 L 281.5,41 L 282,41.5 L 283,41.5 L 284,41.5 L 285,41.5 L 286,41.5 L 286.5,42 L 287,42.5 L 288,42.5 L 289,42.5 L 290,42.5 L 291,42.5 L 291.5,43 L 292,43.5 L 293,43.5 L 294,43.5 L 295,43.5 L 296,43.5 L 296.5,44 L 297,44.5 L 298,44.5 L 299,44.5 L 300,44.5 L 300.5,45 L 301,45.5 L 302,45.5 L 303,45.5 L 304,45.5 L 304.5,46 L 305,46.5 L 305.5,47 L 305,47.5 L 304.5,48 L 305,48.5 L 305.5,49 L 306,49.5 L 307,49.5 L 307.5,50 L 308,50.5 L 308.5,50 L 308.5,49 L 308,48.5 L 307.5,48 L 307.5,47 L 308,46.5 L 308.5,47 L 309,47.5 L 310,47.5 L 311,47.5 L 311.5,48 L 312,48.5 L 313,48.5 L 314,48.5 L 315,48.5 L 315.5,49 L 316,49.5 L 317,49.5 L 318,49.5 L 318.5,50 L 319,50.5 L 320,50.5 L 321,50.5 L 322,50.5 L 322.5,51 L 323,51.5 L 324,51.5 L 324.5,52 L 325,52.5 L 326,52.5 L 327,52.5 L 327.5,53 L 328,53.5 L 329,53.5 L 329.5,54 L 330,54.5 L 331,54.5 L 332,54.5 L 332.5,55 L 333,55.5 L 334,55.5 L 334.5,56 L 335,56.5 L 335.5,57 L 335.5,58 L 336,58.5 L 336.5,59 L 337,59.5 L 337.5,59 L 337,58.5 L 336.5,58 L 336.5,57 L 337,56.5 L 338,56.5 L 339,56.5 L 339.5,57 L 340,57.5 L 341,57.5 L 342,57.5 L 343,57.5 L 343.5,58 L 344,58.5 L 345,58.5 L 346,58.5 L 346.5,59 L 347,59.5 L 348,59.5 L 349,59.5 L 349.5,60 L 350,60.5 L 351,60.5 L 352,60.5 L 352.5,61 L 353,61.5 L 353.5,62 L 354,62.5 L 354.5,63 L 355,63.5 L 356,63.5 L 356.5,64 L 357,64.5 L 358,64.5 L 358.5,65 L 359,65.5 L 360,65.5 L 360.5,66 L 361,66.5 L 361.5,67 L 362,67.5 L 363,67.5 L 363.5,68 L 364,68.5 L 364.5,69 L 364.5,70 L 364,70.5 L 363,70.5 L 362.5,71 L 363,71.5 L 364,71.5 L 365,71.5 L 365.5,72 L 366,72.5 L 366.5,73 L 367,73.5 L 367.5,73 L 367.5,72 L 367,71.5 L 366.5,71 L 367,70.5 L 368,70.5 L 368.5,71 L 369,71.5 L 369.5,72 L 370,72.5 L 370.5,73 L 370.5,74 L 370.5,75 L 371,75.5 L 371.5,76 L 372,76.5 L 372.5,76 L 372.5,75 L 372,74.5 L 371.5,74 L 372,73.5 L 373,73.5 L 373.5,74 L 374,74.5 L 374.5,75 L 375,75.5 L 376,75.5 L 376.5,76 L 376.5,77 L 377,77.5 L 377.5,78 L 377.5,79 L 378,79.5 L 378.5,80 L 379,80.5 L 379.5,81 L 380,81.5 L 380.5,81 L 380,80.5 L 379.5,80 L 379.5,79 L 380,78.5 L 380.5,79 L 381,79.5 L 381.5,80 L 382,80.5 L 382.5,81 L 383,81.5 L 383.5,82 L 384,82.5 L 385,82.5 L 385.5,83 L 386,83.5 L 386.5,84 L 387,84.5 L 387.5,85 L 388,85.5 L 388.5,86 L 389,86.5 L 389.5,87 L 390,87.5 L 390.5,88 L 390.5,89 L 391,89.5 L 391.5,90 L 392,90.5 L 392.5,91 L 392.5,92 L 393,92.5 L 393.5,93 L 393,93.5 L 392.5,94 L 393,94.5 L 394,94.5 L 394.5,95 L 394.5,96 L 395,96.5 L 395.5,97 L 395.5,98 L 395.5,99 L 395.5,100 L 395,100.5 L 394.5,101 L 394,101.5 L 393,101.5 L 392.5,102 L 392,102.5 L 391.5,103 L 391,103.5 L 390.5,104 L 390,104.5 L 389,104.5 L 388.5,105 L 388,105.5 L 387.5,106 L 387,106.5 L 386,106.5 L 385,106.5 L 384.5,107 L 384,107.5 L 383,107.5 L 382,107.5 L 381,107.5 L 380,107.5 L 379,107.5 L 378.5,107 L 378,106.5 L 377,106.5 L 376,106.5 L 375,106.5 L 374.5,106 L 374,105.5 L 373,105.5 L 372,105.5 L 371,105.5 L 370,105.5 L 369,105.5 L 368,105.5 L 367.5,105 L 367,104.5 L 366,104.5 L 365,104.5 L 364,104.5 L 363,104.5 L 362,104.5 L 361.5,104 L 361,103.5 L 360,103.5 L 359,103.5 L 358,103.5 L 357,103.5 L 356,103.5 L 355,103.5 L 354,103.5 L 353,103.5 L 352,103.5 L 351,103.5 L 350,103.5 L 349,103.5 L 348,103.5 L 347,103.5 L 346,103.5 L 345,103.5 L 344,103.5 L 343,103.5 L 342,103.5 L 341,103.5 L 340,103.5 L 339,103.5 L 338,103.5 L 337,103.5 L 336,103.5 L 335,103.5 L 334,103.5 L 333,103.5 L 332,103.5 L 331,103.5 L 330,103.5 L 329,103.5 L 328,103.5 L 327,103.5 L 326,103.5 L 325,103.5 L 324,103.5 L 323,103.5 L 322,103.5 L 321,103.5 L 320,103.5 L 319,103.5 L 318,103.5 L 317,103.5 L 316,103.5 L 315,103.5 L 314,103.5 L 313,103.5 L 312,103.5 L 311.5,104 L 311,104.5 L 310.5,104 L 310,103.5 L 309,103.5 L 308,103.5 L 307,103.5 L 306,103.5 L 305,103.5 L 304,103.5 L 303,103.5 L 302,103.5 L 301,103.5 L 300,103.5 L 299,103.5 L 298,103.5 L 297.5,103 L 297,102.5 L 296,102.5 L 295,102.5 L 294,102.5 L 293,102.5 L 292,102.5 L 291,102.5 L 290,102.5 L 289,102.5 L 288,102.5 L 287,102.5 L 286.5,103 L 286,103.5 L 285.5,104 L 285,104.5 L 284.5,105 L 284,105.5 L 283.5,106 L 283,106.5 L 282.5,107 L 282,107.5 L 281.5,108 L 281,108.5 L 280.5,109 L 238.5,105 L 238.5,104 L 239,103.5 L 239.5,103 L 240,102.5 L 240.5,102 L 240,101.5 L 239,101.5 L 238,101.5 L 237,101.5 L 236,101.5 L 235,101.5 L 234,101.5 L 233,101.5 L 232,101.5 L 231,101.5 L 230,101.5 L 229,101.5 L 228,101.5 L 227,101.5 L 226,101.5 L 225,101.5 L 224,101.5 L 223,101.5 L 222,101.5 L 221,101.5 L 220,101.5 L 219,101.5 L 218,101.5 L 217,101.5 L 216,101.5 L 215,101.5 L 214,101.5 L 213,101.5 L 212,101.5 L 211,101.5 L 210,101.5 L 209,101.5 L 208,101.5 L 207,101.5 L 206,101.5 L 205,101.5 L 204,101.5 L 203,101.5 L 202,101.5 L 201,101.5 L 200,101.5 L 199,101.5 L 198,101.5 L 197,101.5 L 196,101.5 L 195,101.5 L 194,101.5 L 193,101.5 L 192,101.5 L 191,101.5 L 190,101.5 L 189,101.5 L 188,101.5 L 187,101.5 L 186,101.5 L 185,101.5 L 184,101.5 L 183,101.5 L 182,101.5 L 181,101.5 L 180,101.5 L 179,101.5 L 178,101.5 L 177,101.5 L 176,101.5 L 175,101.5 L 174,101.5 L 173,101.5 L 172,101.5 L 171,101.5 L 170,101.5 L 169,101.5 L 168,101.5 L 167,101.5 L 166,101.5 L 165,101.5 L 164,101.5 L 163,101.5 L 162,101.5 L 161,101.5 L 160,101.5 L 159,101.5 L 158,101.5 L 157,101.5 L 156,101.5 L 155,101.5 L 154,101.5 L 153,101.5 L 152,101.5 L 151,101.5 L 150,101.5 L 149,101.5 L 148.5,101 L 148,100.5 L 147,100.5 L 146,100.5 L 145,100.5 L 144,100.5 L 143,100.5 L 142,100.5 L 141,100.5 L 140,100.5 L 139,100.5 L 138,100.5 L 137.5,101 L 137,101.5 L 136,101.5 L 135,101.5 L 134,101.5 L 133,101.5 L 132.5,102 L 132,102.5 L 131,102.5 L 130,102.5 L 129,102.5 L 128,102.5 L 127,102.5 L 126.5,103 L 126,103.5 L 125,103.5 L 124,103.5 L 123,103.5 L 122,103.5 L 121,103.5 L 120,103.5 L 119.5,103 L 119,102.5 L 118,102.5 L 117,102.5 L 116,102.5 L 115,102.5 L 114,102.5 L 113,102.5 L 112.5,103 L 112,103.5 L 111,103.5 L 110,103.5 L 109,103.5 L 108,103.5 L 107,103.5 L 106,103.5 L 105.5,104 L 105,104.5 L 104,104.5 L 103,104.5 L 102,104.5 L 101,104.5 L 100,104.5 L 99.5,105 L 99,105.5 L 98,105.5 L 97,105.5 L 96.5,106 L 96,106.5 L 95,106.5 L 94,106.5 L 93,106.5 L 92.5,107 L 92,107.5 L 91,107.5 L 90,107.5 L 89.5,108 L 89,108.5 L 88,108.5 L 87,108.5 L 86,108.5 L 85.5,109 L 85,109.5 L 84,109.5 L 83,109.5 L 82.5,110 L 82,110.5 L 81,110.5 L 80.5,111 L 80,111.5 L 79,111.5 L 78,111.5 L 77.5,112 L 77,112.5 L 76,112.5 L 75,112.5 L 74.5,113 L 74,113.5 L 73,113.5 L 72,113.5 L 71,113.5 L 70.5,114 L 70,114.5 L 69,114.5 L 68,114.5 L 67,114.5 L 66.5,115 L 66,115.5 L 65,115.5 Z" fill="url(#gray-skin)" />
      <!-- mouth -->
      <path d="M 395,100 C 370,95 340,95 320,102 C 300,104 280,105 270,106" stroke="#111215" stroke-width="2.5" fill="none" stroke-linecap="round" />
      <!-- eye -->
      <circle cx="310" cy="98" r="2" fill="#2c3035" /><circle cx="310" cy="98" r="1" fill="#000" /><circle cx="309.5" cy="97.5" r="0.4" fill="#fff" />
      <g class="mottling" fill="#ffffff" opacity="0.9"><circle cx="375" cy="100" r="1.5"/><circle cx="370" cy="108" r="2"/><circle cx="360" cy="112" r="2.5"/><circle cx="350" cy="110" r="1.5"/><circle cx="340" cy="113" r="3"/><circle cx="330" cy="110" r="2"/><circle cx="310" cy="108" r="1.5"/><circle cx="290" cy="110" r="2.5"/><circle cx="280" cy="105" r="4"/><circle cx="270" cy="108" r="3"/><circle cx="250" cy="105" r="2"/><circle cx="220" cy="100" r="2.5"/><circle cx="200" cy="105" r="1.5"/><circle cx="170" cy="105" r="2"/><circle cx="150" cy="100" r="3"/><circle cx="120" cy="95" r="2.5"/><circle cx="100" cy="85" r="1.5"/><circle cx="90" cy="75" r="2"/><circle cx="80" cy="80" r="1"/></g>
    </g>
    <g class="flipper-front" style="transform-origin: 260px 110px; transform-box: view-box;">
      <path d="M 280,109.5 L 279.5,110 L 279,110.5 L 278.5,111 L 278,111.5 L 277.5,112 L 277,112.5 L 276.5,113 L 276,113.5 L 275,113.5 L 274.5,114 L 274,114.5 L 273.5,115 L 273,115.5 L 272.5,116 L 272,116.5 L 271.5,117 L 271,117.5 L 270.5,118 L 270,118.5 L 269,118.5 L 268.5,119 L 268,119.5 L 267.5,120 L 267,120.5 L 266,120.5 L 265.5,121 L 265,121.5 L 264,121.5 L 263.5,122 L 263,122.5 L 262,122.5 L 261.5,123 L 261,123.5 L 260,123.5 L 259,123.5 L 258.5,124 L 258,124.5 L 257,124.5 L 256,124.5 L 255.5,125 L 255,125.5 L 254,125.5 L 253,125.5 L 252.5,126 L 252,126.5 L 251,126.5 L 250,126.5 L 249,126.5 L 248,126.5 L 247.5,127 L 247,127.5 L 246,127.5 L 245,127.5 L 244,127.5 L 243,127.5 L 242,127.5 L 241,127.5 L 240,127.5 L 239,127.5 L 238,127.5 L 237,127.5 L 236,127.5 L 235,127.5 L 234,127.5 L 233.5,127 L 233,126.5 L 232.5,126 L 233,125.5 L 233.5,125 L 234,124.5 L 234.5,124 L 234.5,123 L 235,122.5 L 235.5,122 L 235.5,121 L 236,120.5 L 236.5,120 L 236.5,119 L 237,118.5 L 237.5,118 L 237.5,117 L 238,116.5 L 238.5,116 L 238,115.5 L 237,115.5 L 236,115.5 L 235,115.5 L 234,115.5 L 233.5,115 L 234,114.5 L 234.5,114 L 234.5,113 L 235,112.5 L 235.5,112 L 236,111.5 L 236.5,111 L 236.5,110 L 236.5,109 L 237,108.5 L 237.5,108 L 237.5,107 L 238,106.5 L 238.5,106 Z" fill="url(#gray-skin)" stroke="#111215" stroke-width="1" />
    </g>
  </g>
</svg>
