<svg xmlns="http://www.w3.org/2000/svg" viewBox="0 0 400 200">
  <defs>
    <linearGradient id="right-skin" x1="100%" y1="0%" x2="0%" y2="0%"><stop offset="0%" stop-color="#1a1b1c" /><stop offset="60%" stop-color="#252729" /><stop offset="100%" stop-color="#323436" /></linearGradient>
  </defs>
  <g class="whale-container">
    <g class="flipper-back"><path d="M 196,138 C 184,160 188,182 200,190 C 207,190 204,174 197,156 Z" fill="#1a1b1c" opacity="0.55" /></g>
    <g class="tail-fin" style="transform-origin: 310px 100px; transform-box: view-box;"><path d="M 310,100 C 324,88 340,68 364,50 C 354,76 336,90 324,100 C 336,110 354,124 364,150 C 340,132 324,112 310,100 Z" fill="url(#right-skin)" /></g>
    <g class="body">
      <path d="M 310,84 C 285,70 255,62 228,60 C 200,58 168,58 138,60 C 116,62 92,54 76,40 C 62,34 50,40 44,58 C 40,68 40,82 44,96 C 46,108 56,122 70,132 C 98,150 148,164 205,162 C 250,160 282,140 310,116 Z" fill="url(#right-skin)" />
      <path d="M 163,146 C 200,152 244,146 256,140 C 244,135 200,140 163,146 Z" fill="#ffffff" opacity="0.9" />
      <path d="M 112,126 C 88,114 60,96 40,112" stroke="rgba(0,0,0,0.5)" stroke-width="2.2" fill="none" stroke-linecap="round" />
      <path d="M 44,72 C 46,62 54,56 64,56 C 74,56 80,64 76,74 C 72,84 58,88 50,86 Z" fill="#d8d8cf" opacity="0.94" />
      <path d="M 50,62 C 56,58 64,57 68,61 C 64,64 56,65 50,62 Z" fill="#eaeae2" opacity="0.75" />
      <path d="M 80,57 C 74,56 71,60 74,62 C 78,64 82,60 80,57 Z" fill="#d8d8cf" opacity="0.88" />
      <path d="M 60,118 C 54,117 51,121 54,123 C 58,124 62,121 60,118 Z" fill="#d8d8cf" opacity="0.88" />
      <path d="M 118,66 C 112,65 109,69 112,71 C 116,73 120,69 118,66 Z" fill="#d8d8cf" opacity="0.85" />
      <circle cx="100" cy="80" r="2.5" fill="#ffffff" /><circle cx="100" cy="80" r="1.1" fill="#000000" />
    </g>
    <g class="flipper-front" style="transform-origin: 106px 120px; transform-box: view-box;"><path d="M 106,120 C 82,132 76,168 96,180 C 114,188 140,172 136,124 Z" fill="url(#right-skin)" stroke="#252729" stroke-width="0.5" /></g>
  </g>
</svg>
