<svg xmlns="http://www.w3.org/2000/svg" viewBox="0 0 400 200">
  <defs>
    <linearGradient id="right-skin" x1="100%" y1="0%" x2="0%" y2="0%"><stop offset="0%" stop-color="#1a1b1c" /><stop offset="60%" stop-color="#252729" /><stop offset="100%" stop-color="#323436" /></linearGradient>
  </defs>
  <g class="whale-container">
    <g class="flipper-back"><path d="M 192,126 C 184,142 192,160 202,166 C 207,166 204,153 196,138 Z" fill="#1a1b1c" opacity="0.55" /></g>
    <g class="tail-fin" style="transform-origin: 290px 100px; transform-box: view-box;"><path d="M 290,100 C 305,90 320,72 342,60 C 330,84 315,95 302,100 C 315,105 330,116 342,140 C 320,128 305,110 290,100 Z" fill="url(#right-skin)" /></g>
    <g class="body">
      <path d="M 290,100 C 258,92 212,63 163,62 C 113,62 73,80 51,105 C 46,112 49,120 59,124 C 118,140 220,136 290,100 Z" fill="url(#right-skin)" />
      <path d="M 175,130 C 204,134 238,129 248,124 C 238,120 204,125 175,130 Z" fill="#ffffff" opacity="0.9" />
      <path d="M 130,121 C 108,109 78,93 56,111" stroke="rgba(0,0,0,0.5)" stroke-width="2.2" fill="none" stroke-linecap="round" />
      <path d="M 51,105 C 53,97 60,91 68,91 C 76,91 81,96 78,103 C 74,109 62,113 54,110 Z" fill="#d8d8cf" opacity="0.94" />
      <path d="M 57,97 C 62,94 68,93 72,96 C 68,98 62,99 57,97 Z" fill="#eaeae2" opacity="0.75" />
      <path d="M 80,92 C 75,91 72,94 74,96 C 77,97 81,94 80,92 Z" fill="#d8d8cf" opacity="0.88" />
      <path d="M 71,111 C 66,110 63,113 65,115 C 68,116 72,114 71,111 Z" fill="#d8d8cf" opacity="0.88" />
      <path d="M 127,88 C 121,87 118,91 120,93 C 124,95 128,91 127,88 Z" fill="#d8d8cf" opacity="0.85" />
      <circle cx="136" cy="108" r="2.1" fill="#ffffff" /><circle cx="136" cy="108" r="0.95" fill="#000000" />
    </g>
    <g class="flipper-front" style="transform-origin: 170px 118px; transform-box: view-box;"><path d="M 170,118 C 154,126 150,153 165,163 C 178,169 188,156 186,124 Z" fill="url(#right-skin)" stroke="#252729" stroke-width="0.5" /></g>
  </g>
</svg>
