<svg xmlns="http://www.w3.org/2000/svg" viewBox="0 0 400 200">
  <defs>
    <linearGradient id="right-skin" x1="100%" y1="0%" x2="0%" y2="0%"><stop offset="0%" stop-color="#1a1b1c" /><stop offset="60%" stop-color="#252729" /><stop offset="100%" stop-color="#323436" /></linearGradient>
  </defs>
  <g class="whale-container">
    <g class="flipper-back"><path d="M 190,130 C 180,148 186,168 196,175 C 202,175 199,162 191,145 Z" fill="#1a1b1c" opacity="0.55" /></g>
    <g class="tail-fin" style="transform-origin: 290px 100px; transform-box: view-box;"><path d="M 290,100 C 305,88 322,70 344,56 C 332,82 316,94 302,100 C 316,106 332,118 344,144 C 322,130 305,112 290,100 Z" fill="url(#right-skin)" /></g>
    <g class="body">
      <path d="M 290,100 C 275,87 260,74 235,66 C 210,62 175,62 140,62 C 105,62 80,70 62,80 C 54,86 50,94 50,102 C 49,112 56,124 66,130 C 100,148 162,155 216,150 C 255,144 278,126 290,100 Z" fill="url(#right-skin)" />
      <path d="M 172,136 C 206,140 240,135 250,130 C 240,126 206,130 172,136 Z" fill="#ffffff" opacity="0.9" />
      <path d="M 126,127 C 102,114 74,98 52,115" stroke="rgba(0,0,0,0.5)" stroke-width="2.2" fill="none" stroke-linecap="round" />
      <path d="M 50,102 C 52,93 59,87 68,87 C 77,87 82,93 79,101 C 75,108 63,112 55,110 Z" fill="#d8d8cf" opacity="0.94" />
      <path d="M 56,93 C 61,90 68,89 72,92 C 68,94 61,95 56,93 Z" fill="#eaeae2" opacity="0.75" />
      <path d="M 80,88 C 75,87 72,90 74,92 C 77,93 81,90 80,88 Z" fill="#d8d8cf" opacity="0.88" />
      <path d="M 70,111 C 64,110 61,114 63,116 C 67,117 71,114 70,111 Z" fill="#d8d8cf" opacity="0.88" />
      <path d="M 124,80 C 118,79 115,83 117,85 C 121,87 125,83 124,80 Z" fill="#d8d8cf" opacity="0.85" />
      <circle cx="106" cy="98" r="2.2" fill="#ffffff" /><circle cx="106" cy="98" r="1" fill="#000000" />
    </g>
    <g class="flipper-front" style="transform-origin: 168px 122px; transform-box: view-box;"><path d="M 168,122 C 154,130 150,156 164,166 C 176,172 186,159 184,126 Z" fill="url(#right-skin)" stroke="#252729" stroke-width="0.5" /></g>
  </g>
</svg>
