<svg xmlns="http://www.w3.org/2000/svg" viewBox="0 0 400 200">
  <defs>
    <linearGradient id="right-skin" x1="100%" y1="0%" x2="0%" y2="0%"><stop offset="0%" stop-color="#1a1b1c" /><stop offset="60%" stop-color="#252729" /><stop offset="100%" stop-color="#323436" /></linearGradient>
  </defs>
  <g class="whale-container">
    <g class="flipper-back"><path d="M 200,136 C 188,158 193,180 206,188 C 213,188 210,172 200,154 Z" fill="#1a1b1c" opacity="0.55" /></g>
    <g class="tail-fin" style="transform-origin: 290px 100px; transform-box: view-box;"><path d="M 290,100 C 300,82 318,62 348,50 C 344,68 334,88 318,98 C 316,100 315,100 316,102 C 334,112 344,132 348,150 C 318,138 300,118 290,100 Z" fill="url(#right-skin)" /></g>
    <g class="body">
      <path d="M 290,100 C 278,90 265,78 248,70 C 228,63 200,62 175,62 C 150,62 118,62 80,64 C 64,70 54,84 48,100 C 46,110 50,122 60,130 C 84,152 148,162 210,157 C 250,151 276,130 290,100 Z" fill="url(#right-skin)" />
      <path d="M 163,142 C 200,148 244,142 256,136 C 244,131 200,135 163,142 Z" fill="#ffffff" opacity="0.9" />
      <path d="M 110,128 C 86,116 60,98 40,116" stroke="rgba(0,0,0,0.5)" stroke-width="2.2" fill="none" stroke-linecap="round" />
      <path d="M 48,100 C 50,91 57,85 67,85 C 77,85 82,92 79,101 C 75,109 62,113 54,111 Z" fill="#d8d8cf" opacity="0.94" />
      <path d="M 54,91 C 59,88 67,87 71,90 C 67,92 59,93 54,91 Z" fill="#eaeae2" opacity="0.75" />
      <path d="M 80,86 C 74,85 71,88 73,90 C 77,91 81,88 80,86 Z" fill="#d8d8cf" opacity="0.88" />
      <path d="M 66,112 C 59,111 56,115 58,117 C 62,118 67,115 66,112 Z" fill="#d8d8cf" opacity="0.88" />
      <path d="M 112,76 C 106,75 103,79 105,81 C 109,83 113,79 112,76 Z" fill="#d8d8cf" opacity="0.85" />
      <circle cx="100" cy="88" r="2.5" fill="#ffffff" /><circle cx="100" cy="88" r="1.1" fill="#000000" />
    </g>
    <g class="flipper-front" style="transform-origin: 124px 118px; transform-box: view-box;"><path d="M 124,118 C 100,130 94,166 114,180 C 132,189 158,172 154,122 Z" fill="url(#right-skin)" stroke="#252729" stroke-width="0.5" /></g>
  </g>
</svg>
