<svg xmlns="http://www.w3.org/2000/svg" viewBox="0 0 400 200">
  <defs>
    <linearGradient id="south-right-skin" x1="100%" y1="0%" x2="0%" y2="0%"><stop offset="0%" stop-color="#243441" /><stop offset="60%" stop-color="#334756" /><stop offset="100%" stop-color="#4a5e6d" /></linearGradient>
    <linearGradient id="south-right-belly" x1="100%" y1="0%" x2="0%" y2="100%"><stop offset="0%" stop-color="#243441" /><stop offset="100%" stop-color="#e2e8f0" /></linearGradient>
  </defs>
  <g class="whale-container">
    <g class="flipper-back"><path d="M 195,116 C 190,132 198,148 206,154 C 210,154 208,142 202,128 Z" fill="#243441" opacity="0.6" /></g>
    <g class="tail-fin" style="transform-origin: 290px 100px; transform-box: view-box;"><path d="M 290,100 C 305,90 320,72 342,60 C 330,84 315,95 302,100 C 315,105 330,116 342,140 C 320,128 305,110 290,100 Z" fill="url(#south-right-skin)" /></g>
    <g class="body">
      <path d="M 290,100 C 260,94 220,68 170,67 C 120,67 78,84 52,107 C 49,111 52,116 61,118 C 120,134 220,129 290,100 Z" fill="url(#south-right-skin)" />
      <path d="M 172,122 C 200,126 238,122 248,118 C 238,115 200,118 172,122 Z" fill="url(#south-right-belly)" />
      <path d="M 133,116 C 113,107 83,93 60,109" stroke="rgba(0,0,0,0.35)" stroke-width="1.8" fill="none" stroke-linecap="round" />
      <path d="M 63,105 C 59,105 56,107 57,109 C 59,111 63,109 65,107 Z" fill="#fafaf9" opacity="0.95" stroke="#94a3b8" stroke-width="0.3" />
      <path d="M 70,100 C 65,99 63,101 65,102 C 67,103 70,102 71,100 Z" fill="#fafaf9" opacity="0.9" />
      <path d="M 74,109 C 70,109 68,112 70,113 C 73,114 75,111 74,109 Z" fill="#fafaf9" opacity="0.9" />
      <path d="M 81,104 C 77,103 75,106 77,107 C 80,108 82,106 81,104 Z" fill="#fafaf9" opacity="0.85" />
      <circle cx="93" cy="114" r="2.5" fill="#fafaf9" opacity="0.95" /><circle cx="105" cy="118" r="2.5" fill="#fafaf9" opacity="0.95" /><circle cx="117" cy="121" r="2.5" fill="#fafaf9" opacity="0.95" /><circle cx="129" cy="122" r="2" fill="#fafaf9" opacity="0.9" />
      <circle cx="130" cy="108" r="1.8" fill="#ffffff" /><circle cx="130" cy="108" r="0.8" fill="#000000" />
    </g>
    <g class="flipper-front" style="transform-origin: 175px 120px; transform-box: view-box;"><path d="M 175,120 C 167,144 178,170 190,180 C 195,180 194,164 185,138 Z" fill="url(#south-right-skin)" stroke="#334756" stroke-width="0.5" /></g>
  </g>
</svg>
